<mxfile host="app.diagrams.net" modified="2024-04-15T08:00:48.756Z" agent="Mozilla/5.0 (Windows NT 10.0; Win64; x64) AppleWebKit/537.36 (KHTML, like Gecko) Chrome/123.0.0.0 Safari/537.36" etag="d7xEr4i9BC01-7MzEhhI" version="24.2.1" type="github">
  <diagram id="R2lEEEUBdFMjLlhIrx00" name="Page-1">
    <mxGraphModel dx="1105" dy="586" grid="1" gridSize="10" guides="1" tooltips="1" connect="1" arrows="1" fold="1" page="1" pageScale="1" pageWidth="850" pageHeight="1100" math="0" shadow="0" extFonts="Permanent Marker^https://fonts.googleapis.com/css?family=Permanent+Marker">
      <root>
        <mxCell id="0" />
        <mxCell id="1" parent="0" />
        <mxCell id="SOoIHOLNry1fZk-QdcBf-20" style="edgeStyle=orthogonalEdgeStyle;rounded=0;orthogonalLoop=1;jettySize=auto;html=1;exitX=1;exitY=0.5;exitDx=0;exitDy=0;entryX=0;entryY=0.5;entryDx=0;entryDy=0;endArrow=none;endFill=0;" edge="1" parent="1" source="SOoIHOLNry1fZk-QdcBf-1" target="SOoIHOLNry1fZk-QdcBf-19">
          <mxGeometry relative="1" as="geometry" />
        </mxCell>
        <mxCell id="SOoIHOLNry1fZk-QdcBf-49" style="edgeStyle=orthogonalEdgeStyle;rounded=0;orthogonalLoop=1;jettySize=auto;html=1;exitX=1;exitY=1;exitDx=0;exitDy=0;entryX=0.5;entryY=0;entryDx=0;entryDy=0;endArrow=none;endFill=0;" edge="1" parent="1" source="SOoIHOLNry1fZk-QdcBf-1" target="SOoIHOLNry1fZk-QdcBf-45">
          <mxGeometry relative="1" as="geometry">
            <mxPoint x="330" y="475" as="targetPoint" />
          </mxGeometry>
        </mxCell>
        <mxCell id="SOoIHOLNry1fZk-QdcBf-1" value="FuncionÃ¡rio" style="rounded=0;whiteSpace=wrap;html=1;" vertex="1" parent="1">
          <mxGeometry x="210" y="375" width="120" height="60" as="geometry" />
        </mxCell>
        <mxCell id="SOoIHOLNry1fZk-QdcBf-2" value="Cargo" style="rounded=0;whiteSpace=wrap;html=1;" vertex="1" parent="1">
          <mxGeometry x="605" y="375" width="120" height="60" as="geometry" />
        </mxCell>
        <mxCell id="SOoIHOLNry1fZk-QdcBf-3" value="Dependente" style="rounded=0;whiteSpace=wrap;html=1;" vertex="1" parent="1">
          <mxGeometry x="270" y="655" width="120" height="60" as="geometry" />
        </mxCell>
        <mxCell id="SOoIHOLNry1fZk-QdcBf-23" style="edgeStyle=orthogonalEdgeStyle;rounded=0;orthogonalLoop=1;jettySize=auto;html=1;exitX=0.5;exitY=1;exitDx=0;exitDy=0;entryX=0.5;entryY=0;entryDx=0;entryDy=0;endArrow=none;endFill=0;" edge="1" parent="1" source="SOoIHOLNry1fZk-QdcBf-5" target="SOoIHOLNry1fZk-QdcBf-2">
          <mxGeometry relative="1" as="geometry" />
        </mxCell>
        <mxCell id="SOoIHOLNry1fZk-QdcBf-5" value="" style="ellipse;whiteSpace=wrap;html=1;aspect=fixed;fillColor=#000000;" vertex="1" parent="1">
          <mxGeometry x="650" y="335" width="30" height="30" as="geometry" />
        </mxCell>
        <mxCell id="SOoIHOLNry1fZk-QdcBf-6" value="" style="ellipse;whiteSpace=wrap;html=1;aspect=fixed;" vertex="1" parent="1">
          <mxGeometry x="190" y="335" width="30" height="30" as="geometry" />
        </mxCell>
        <mxCell id="SOoIHOLNry1fZk-QdcBf-7" value="" style="ellipse;whiteSpace=wrap;html=1;aspect=fixed;fillColor=#000000;" vertex="1" parent="1">
          <mxGeometry x="230" y="335" width="30" height="30" as="geometry" />
        </mxCell>
        <mxCell id="SOoIHOLNry1fZk-QdcBf-8" value="" style="ellipse;whiteSpace=wrap;html=1;aspect=fixed;" vertex="1" parent="1">
          <mxGeometry x="270" y="335" width="30" height="30" as="geometry" />
        </mxCell>
        <mxCell id="SOoIHOLNry1fZk-QdcBf-37" style="edgeStyle=orthogonalEdgeStyle;rounded=0;orthogonalLoop=1;jettySize=auto;html=1;exitX=1;exitY=0.5;exitDx=0;exitDy=0;entryX=0;entryY=0;entryDx=0;entryDy=0;endArrow=none;endFill=0;" edge="1" parent="1" source="SOoIHOLNry1fZk-QdcBf-9" target="SOoIHOLNry1fZk-QdcBf-1">
          <mxGeometry relative="1" as="geometry" />
        </mxCell>
        <mxCell id="SOoIHOLNry1fZk-QdcBf-9" value="" style="ellipse;whiteSpace=wrap;html=1;aspect=fixed;" vertex="1" parent="1">
          <mxGeometry x="170" y="365" width="30" height="30" as="geometry" />
        </mxCell>
        <mxCell id="SOoIHOLNry1fZk-QdcBf-36" style="edgeStyle=orthogonalEdgeStyle;rounded=0;orthogonalLoop=1;jettySize=auto;html=1;exitX=1;exitY=0.5;exitDx=0;exitDy=0;entryX=0;entryY=0.75;entryDx=0;entryDy=0;endArrow=none;endFill=0;" edge="1" parent="1" source="SOoIHOLNry1fZk-QdcBf-10" target="SOoIHOLNry1fZk-QdcBf-1">
          <mxGeometry relative="1" as="geometry" />
        </mxCell>
        <mxCell id="SOoIHOLNry1fZk-QdcBf-10" value="" style="ellipse;whiteSpace=wrap;html=1;aspect=fixed;" vertex="1" parent="1">
          <mxGeometry x="170" y="405" width="30" height="30" as="geometry" />
        </mxCell>
        <mxCell id="SOoIHOLNry1fZk-QdcBf-11" value="" style="ellipse;whiteSpace=wrap;html=1;aspect=fixed;" vertex="1" parent="1">
          <mxGeometry x="305" y="335" width="30" height="30" as="geometry" />
        </mxCell>
        <mxCell id="SOoIHOLNry1fZk-QdcBf-13" value="" style="ellipse;whiteSpace=wrap;html=1;aspect=fixed;" vertex="1" parent="1">
          <mxGeometry x="190" y="445" width="30" height="30" as="geometry" />
        </mxCell>
        <mxCell id="SOoIHOLNry1fZk-QdcBf-14" value="" style="ellipse;whiteSpace=wrap;html=1;aspect=fixed;" vertex="1" parent="1">
          <mxGeometry x="230" y="445" width="30" height="30" as="geometry" />
        </mxCell>
        <mxCell id="SOoIHOLNry1fZk-QdcBf-15" value="" style="ellipse;whiteSpace=wrap;html=1;aspect=fixed;" vertex="1" parent="1">
          <mxGeometry x="270" y="445" width="30" height="30" as="geometry" />
        </mxCell>
        <mxCell id="SOoIHOLNry1fZk-QdcBf-27" style="edgeStyle=orthogonalEdgeStyle;rounded=0;orthogonalLoop=1;jettySize=auto;html=1;exitX=0.5;exitY=0;exitDx=0;exitDy=0;entryX=0.75;entryY=1;entryDx=0;entryDy=0;endArrow=none;endFill=0;" edge="1" parent="1" source="SOoIHOLNry1fZk-QdcBf-16" target="SOoIHOLNry1fZk-QdcBf-3">
          <mxGeometry relative="1" as="geometry" />
        </mxCell>
        <mxCell id="SOoIHOLNry1fZk-QdcBf-16" value="" style="ellipse;whiteSpace=wrap;html=1;aspect=fixed;" vertex="1" parent="1">
          <mxGeometry x="345" y="725" width="30" height="30" as="geometry" />
        </mxCell>
        <mxCell id="SOoIHOLNry1fZk-QdcBf-17" value="" style="ellipse;whiteSpace=wrap;html=1;aspect=fixed;" vertex="1" parent="1">
          <mxGeometry x="300" y="725" width="30" height="30" as="geometry" />
        </mxCell>
        <mxCell id="SOoIHOLNry1fZk-QdcBf-29" style="edgeStyle=orthogonalEdgeStyle;rounded=0;orthogonalLoop=1;jettySize=auto;html=1;exitX=0;exitY=0.5;exitDx=0;exitDy=0;entryX=1;entryY=0.5;entryDx=0;entryDy=0;endArrow=none;endFill=0;" edge="1" parent="1" source="SOoIHOLNry1fZk-QdcBf-18" target="SOoIHOLNry1fZk-QdcBf-3">
          <mxGeometry relative="1" as="geometry" />
        </mxCell>
        <mxCell id="SOoIHOLNry1fZk-QdcBf-18" value="" style="ellipse;whiteSpace=wrap;html=1;aspect=fixed;fillColor=#000000;" vertex="1" parent="1">
          <mxGeometry x="400" y="670" width="30" height="30" as="geometry" />
        </mxCell>
        <mxCell id="SOoIHOLNry1fZk-QdcBf-21" style="edgeStyle=orthogonalEdgeStyle;rounded=0;orthogonalLoop=1;jettySize=auto;html=1;exitX=1;exitY=0.5;exitDx=0;exitDy=0;entryX=0;entryY=0.5;entryDx=0;entryDy=0;endArrow=none;endFill=0;" edge="1" parent="1" source="SOoIHOLNry1fZk-QdcBf-19" target="SOoIHOLNry1fZk-QdcBf-2">
          <mxGeometry relative="1" as="geometry" />
        </mxCell>
        <mxCell id="SOoIHOLNry1fZk-QdcBf-19" value="" style="rhombus;whiteSpace=wrap;html=1;" vertex="1" parent="1">
          <mxGeometry x="445" y="365" width="80" height="80" as="geometry" />
        </mxCell>
        <mxCell id="SOoIHOLNry1fZk-QdcBf-28" style="edgeStyle=orthogonalEdgeStyle;rounded=0;orthogonalLoop=1;jettySize=auto;html=1;exitX=0.5;exitY=0;exitDx=0;exitDy=0;entryX=0.373;entryY=1.037;entryDx=0;entryDy=0;entryPerimeter=0;endArrow=none;endFill=0;" edge="1" parent="1" source="SOoIHOLNry1fZk-QdcBf-17" target="SOoIHOLNry1fZk-QdcBf-3">
          <mxGeometry relative="1" as="geometry" />
        </mxCell>
        <mxCell id="SOoIHOLNry1fZk-QdcBf-30" value="id" style="text;html=1;align=center;verticalAlign=middle;whiteSpace=wrap;rounded=0;" vertex="1" parent="1">
          <mxGeometry x="430" y="670" width="20" height="30" as="geometry" />
        </mxCell>
        <mxCell id="SOoIHOLNry1fZk-QdcBf-32" style="edgeStyle=orthogonalEdgeStyle;rounded=0;orthogonalLoop=1;jettySize=auto;html=1;exitX=0.5;exitY=0;exitDx=0;exitDy=0;entryX=0.625;entryY=1;entryDx=0;entryDy=0;entryPerimeter=0;endArrow=none;endFill=0;" edge="1" parent="1" source="SOoIHOLNry1fZk-QdcBf-15" target="SOoIHOLNry1fZk-QdcBf-1">
          <mxGeometry relative="1" as="geometry" />
        </mxCell>
        <mxCell id="SOoIHOLNry1fZk-QdcBf-33" style="edgeStyle=orthogonalEdgeStyle;rounded=0;orthogonalLoop=1;jettySize=auto;html=1;exitX=0.5;exitY=0;exitDx=0;exitDy=0;entryX=0.31;entryY=0.97;entryDx=0;entryDy=0;endArrow=none;endFill=0;entryPerimeter=0;" edge="1" parent="1" source="SOoIHOLNry1fZk-QdcBf-14" target="SOoIHOLNry1fZk-QdcBf-1">
          <mxGeometry relative="1" as="geometry" />
        </mxCell>
        <mxCell id="SOoIHOLNry1fZk-QdcBf-34" style="edgeStyle=orthogonalEdgeStyle;rounded=0;orthogonalLoop=1;jettySize=auto;html=1;exitX=1;exitY=0;exitDx=0;exitDy=0;entryX=0.077;entryY=1.037;entryDx=0;entryDy=0;entryPerimeter=0;endArrow=none;endFill=0;" edge="1" parent="1" source="SOoIHOLNry1fZk-QdcBf-13" target="SOoIHOLNry1fZk-QdcBf-1">
          <mxGeometry relative="1" as="geometry" />
        </mxCell>
        <mxCell id="SOoIHOLNry1fZk-QdcBf-38" style="edgeStyle=orthogonalEdgeStyle;rounded=0;orthogonalLoop=1;jettySize=auto;html=1;exitX=0.5;exitY=1;exitDx=0;exitDy=0;endArrow=none;endFill=0;" edge="1" parent="1" source="SOoIHOLNry1fZk-QdcBf-7">
          <mxGeometry relative="1" as="geometry">
            <mxPoint x="245" y="375" as="targetPoint" />
          </mxGeometry>
        </mxCell>
        <mxCell id="SOoIHOLNry1fZk-QdcBf-39" style="edgeStyle=orthogonalEdgeStyle;rounded=0;orthogonalLoop=1;jettySize=auto;html=1;exitX=1;exitY=1;exitDx=0;exitDy=0;entryX=0.103;entryY=0.023;entryDx=0;entryDy=0;entryPerimeter=0;endArrow=none;endFill=0;" edge="1" parent="1" source="SOoIHOLNry1fZk-QdcBf-6" target="SOoIHOLNry1fZk-QdcBf-1">
          <mxGeometry relative="1" as="geometry" />
        </mxCell>
        <mxCell id="SOoIHOLNry1fZk-QdcBf-40" style="edgeStyle=orthogonalEdgeStyle;rounded=0;orthogonalLoop=1;jettySize=auto;html=1;exitX=0.5;exitY=1;exitDx=0;exitDy=0;entryX=0.625;entryY=0;entryDx=0;entryDy=0;entryPerimeter=0;endArrow=none;endFill=0;" edge="1" parent="1" source="SOoIHOLNry1fZk-QdcBf-8" target="SOoIHOLNry1fZk-QdcBf-1">
          <mxGeometry relative="1" as="geometry" />
        </mxCell>
        <mxCell id="SOoIHOLNry1fZk-QdcBf-41" style="edgeStyle=orthogonalEdgeStyle;rounded=0;orthogonalLoop=1;jettySize=auto;html=1;exitX=0.5;exitY=1;exitDx=0;exitDy=0;entryX=0.95;entryY=0.037;entryDx=0;entryDy=0;entryPerimeter=0;endArrow=none;endFill=0;" edge="1" parent="1" source="SOoIHOLNry1fZk-QdcBf-11" target="SOoIHOLNry1fZk-QdcBf-1">
          <mxGeometry relative="1" as="geometry" />
        </mxCell>
        <mxCell id="SOoIHOLNry1fZk-QdcBf-42" value="descriÃ§Ã£o" style="text;html=1;align=center;verticalAlign=middle;whiteSpace=wrap;rounded=0;" vertex="1" parent="1">
          <mxGeometry x="635" y="305" width="60" height="30" as="geometry" />
        </mxCell>
        <mxCell id="SOoIHOLNry1fZk-QdcBf-43" value="dt.nasc" style="text;html=1;align=center;verticalAlign=middle;whiteSpace=wrap;rounded=0;" vertex="1" parent="1">
          <mxGeometry x="330" y="765" width="60" height="30" as="geometry" />
        </mxCell>
        <mxCell id="SOoIHOLNry1fZk-QdcBf-44" value="nome" style="text;html=1;align=center;verticalAlign=middle;whiteSpace=wrap;rounded=0;" vertex="1" parent="1">
          <mxGeometry x="285" y="765" width="60" height="30" as="geometry" />
        </mxCell>
        <mxCell id="SOoIHOLNry1fZk-QdcBf-50" style="edgeStyle=orthogonalEdgeStyle;rounded=0;orthogonalLoop=1;jettySize=auto;html=1;exitX=0.5;exitY=1;exitDx=0;exitDy=0;entryX=0.5;entryY=0;entryDx=0;entryDy=0;endArrow=none;endFill=0;" edge="1" parent="1" source="SOoIHOLNry1fZk-QdcBf-45" target="SOoIHOLNry1fZk-QdcBf-3">
          <mxGeometry relative="1" as="geometry" />
        </mxCell>
        <mxCell id="SOoIHOLNry1fZk-QdcBf-45" value="" style="rhombus;whiteSpace=wrap;html=1;" vertex="1" parent="1">
          <mxGeometry x="290" y="505" width="80" height="80" as="geometry" />
        </mxCell>
        <mxCell id="SOoIHOLNry1fZk-QdcBf-53" style="edgeStyle=orthogonalEdgeStyle;rounded=0;orthogonalLoop=1;jettySize=auto;html=1;exitX=0;exitY=1;exitDx=0;exitDy=0;entryX=1;entryY=0;entryDx=0;entryDy=0;endArrow=none;endFill=0;" edge="1" parent="1" source="SOoIHOLNry1fZk-QdcBf-51" target="SOoIHOLNry1fZk-QdcBf-19">
          <mxGeometry relative="1" as="geometry" />
        </mxCell>
        <mxCell id="SOoIHOLNry1fZk-QdcBf-51" value="" style="ellipse;whiteSpace=wrap;html=1;aspect=fixed;" vertex="1" parent="1">
          <mxGeometry x="515" y="335" width="30" height="30" as="geometry" />
        </mxCell>
        <mxCell id="SOoIHOLNry1fZk-QdcBf-54" style="edgeStyle=orthogonalEdgeStyle;rounded=0;orthogonalLoop=1;jettySize=auto;html=1;exitX=1;exitY=1;exitDx=0;exitDy=0;entryX=0;entryY=0;entryDx=0;entryDy=0;endArrow=none;endFill=0;" edge="1" parent="1" source="SOoIHOLNry1fZk-QdcBf-52" target="SOoIHOLNry1fZk-QdcBf-19">
          <mxGeometry relative="1" as="geometry" />
        </mxCell>
        <mxCell id="SOoIHOLNry1fZk-QdcBf-52" value="" style="ellipse;whiteSpace=wrap;html=1;aspect=fixed;" vertex="1" parent="1">
          <mxGeometry x="425" y="335" width="30" height="30" as="geometry" />
        </mxCell>
        <mxCell id="SOoIHOLNry1fZk-QdcBf-55" value="dt.ini" style="text;html=1;align=center;verticalAlign=middle;whiteSpace=wrap;rounded=0;" vertex="1" parent="1">
          <mxGeometry x="410" y="305" width="60" height="30" as="geometry" />
        </mxCell>
        <mxCell id="SOoIHOLNry1fZk-QdcBf-56" value="dt.fim" style="text;html=1;align=center;verticalAlign=middle;whiteSpace=wrap;rounded=0;" vertex="1" parent="1">
          <mxGeometry x="500" y="305" width="60" height="30" as="geometry" />
        </mxCell>
        <mxCell id="SOoIHOLNry1fZk-QdcBf-57" value="matrÃ­cula" style="text;html=1;align=center;verticalAlign=middle;whiteSpace=wrap;rounded=0;" vertex="1" parent="1">
          <mxGeometry x="210" y="305" width="60" height="30" as="geometry" />
        </mxCell>
        <mxCell id="SOoIHOLNry1fZk-QdcBf-58" value="dt.nasc" style="text;html=1;align=center;verticalAlign=middle;whiteSpace=wrap;rounded=0;" vertex="1" parent="1">
          <mxGeometry x="130" y="335" width="60" height="30" as="geometry" />
        </mxCell>
        <mxCell id="SOoIHOLNry1fZk-QdcBf-59" value="nome" style="text;html=1;align=center;verticalAlign=middle;whiteSpace=wrap;rounded=0;" vertex="1" parent="1">
          <mxGeometry x="255" y="305" width="60" height="30" as="geometry" />
        </mxCell>
        <mxCell id="SOoIHOLNry1fZk-QdcBf-60" value="sexo" style="text;html=1;align=center;verticalAlign=middle;whiteSpace=wrap;rounded=0;" vertex="1" parent="1">
          <mxGeometry x="290" y="305" width="60" height="30" as="geometry" />
        </mxCell>
        <mxCell id="SOoIHOLNry1fZk-QdcBf-61" value="rg" style="text;html=1;align=center;verticalAlign=middle;whiteSpace=wrap;rounded=0;" vertex="1" parent="1">
          <mxGeometry x="130" y="365" width="60" height="30" as="geometry" />
        </mxCell>
        <mxCell id="SOoIHOLNry1fZk-QdcBf-62" value="cpf" style="text;html=1;align=center;verticalAlign=middle;whiteSpace=wrap;rounded=0;" vertex="1" parent="1">
          <mxGeometry x="125" y="405" width="60" height="30" as="geometry" />
        </mxCell>
        <mxCell id="SOoIHOLNry1fZk-QdcBf-63" value="end" style="text;html=1;align=center;verticalAlign=middle;whiteSpace=wrap;rounded=0;" vertex="1" parent="1">
          <mxGeometry x="175" y="475" width="60" height="30" as="geometry" />
        </mxCell>
        <mxCell id="SOoIHOLNry1fZk-QdcBf-64" value="tel" style="text;html=1;align=center;verticalAlign=middle;whiteSpace=wrap;rounded=0;" vertex="1" parent="1">
          <mxGeometry x="215" y="475" width="60" height="30" as="geometry" />
        </mxCell>
        <mxCell id="SOoIHOLNry1fZk-QdcBf-65" value="dt,adm" style="text;html=1;align=center;verticalAlign=middle;whiteSpace=wrap;rounded=0;" vertex="1" parent="1">
          <mxGeometry x="255" y="475" width="60" height="30" as="geometry" />
        </mxCell>
        <mxCell id="SOoIHOLNry1fZk-QdcBf-66" value="N" style="text;html=1;align=center;verticalAlign=middle;whiteSpace=wrap;rounded=0;" vertex="1" parent="1">
          <mxGeometry x="345" y="385" width="20" height="20" as="geometry" />
        </mxCell>
        <mxCell id="SOoIHOLNry1fZk-QdcBf-67" value="N" style="text;html=1;align=center;verticalAlign=middle;whiteSpace=wrap;rounded=0;" vertex="1" parent="1">
          <mxGeometry x="575" y="385" width="20" height="20" as="geometry" />
        </mxCell>
        <mxCell id="SOoIHOLNry1fZk-QdcBf-71" value="N" style="text;html=1;align=center;verticalAlign=middle;whiteSpace=wrap;rounded=0;" vertex="1" parent="1">
          <mxGeometry x="330" y="625" width="20" height="20" as="geometry" />
        </mxCell>
        <mxCell id="SOoIHOLNry1fZk-QdcBf-73" value="1" style="text;html=1;align=center;verticalAlign=middle;whiteSpace=wrap;rounded=0;" vertex="1" parent="1">
          <mxGeometry x="330" y="445" width="20" height="20" as="geometry" />
        </mxCell>
      </root>
    </mxGraphModel>
  </diagram>
</mxfile>
